<?xml version="1.0" encoding="utf-8"?>
<!-- Generator: Adobe Illustrator 16.0.0, SVG Export Plug-In . SVG Version: 6.00 Build 0)  -->
<!DOCTYPE svg PUBLIC "-//W3C//DTD SVG 1.1//EN" "http://www.w3.org/Graphics/SVG/1.1/DTD/svg11.dtd">
<svg version="1.1" id="Layer_1" xmlns="http://www.w3.org/2000/svg" xmlns:xlink="http://www.w3.org/1999/xlink" x="0px" y="0px"
	 width="130px" height="130px" viewBox="-15 0 130 130" enable-background="new -15 0 130 130" xml:space="preserve">
<g>
	<path fill="#D8D8D8" d="M80.344,43.391c-2.564-1.709-5.77-2.564-9.189-2.564c-3.632,0-6.837,1.068-9.615,2.992
		c-1.71-7.266-5.983-13.676-11.966-17.522c-2.565-1.71-5.343-2.779-8.334-3.419c-1.923-0.428-3.633-0.641-5.556-0.641
		c-5.556,0-10.47,1.709-14.745,4.701c-2.778,1.922-5.128,4.274-7.051,7.051c-3.206,4.488-4.915,10.258-4.915,16.24
		c0,15.386,11.966,27.992,26.71,27.992c5.77,0,17.736,0,26.498,0c3.632,0,6.837,0,8.974,0c0,0,0,0,0.214,0
		c9.83,0,17.736-8.333,17.736-18.59c0-3.419-0.854-6.624-2.351-9.402C85.045,47.237,82.908,45.101,80.344,43.391z"/>
</g>
<path fill="#A5A5A5" d="M95.942,56.854c-0.427-5.557-2.563-10.898-5.983-14.959c-1.923-2.35-4.487-4.273-7.266-5.982
	c-3.632-2.137-7.905-3.205-12.394-3.205c-1.495,0-2.99,0.213-4.273,0.427c-2.777-5.128-7.051-9.402-12.18-12.607
	c-2.564-1.496-5.342-2.778-8.12-3.633c-2.992-0.855-6.197-1.282-9.616-1.282c-18.805,0-34.19,15.385-34.19,34.19
	S17.306,83.99,36.11,83.99c5.556,0,21.155,0,29.702,0c1.924,0,3.419,0,4.487,0c11.112,0,20.515-7.051,24.147-16.881
	c1.068-2.777,1.495-5.769,1.495-8.76C95.942,58.135,95.942,57.494,95.942,56.854z M70.3,75.658L70.3,75.658
	c-2.137,0-5.127,0-8.761,0c-8.548,0-20.086,0-25.429,0c-14.104,0-25.643-11.539-25.643-25.643c0-5.557,1.71-10.685,4.701-14.959
	c1.923-2.564,4.06-4.701,6.625-6.41c4.06-2.778,8.975-4.274,14.104-4.274c1.923,0,3.632,0.214,5.342,0.641
	c2.778,0.641,5.556,1.709,7.907,3.205c5.77,3.633,10.043,9.189,11.538,16.027c2.779-1.71,5.771-2.778,9.189-2.778
	c3.205,0,6.196,0.854,8.761,2.351s4.488,3.633,5.983,5.983c1.496,2.563,2.351,5.556,2.351,8.548
	C87.396,68.18,79.702,75.658,70.3,75.658z"/>
<path fill="#83BBFF" d="M26.155,68.289c0.553-0.957,1.775-1.283,2.732-0.731l2.196,1.267v-2.535c0-1.104,0.896-2,2-2
	c1.104,0,2,0.896,2,2v2.535l2.195-1.268c0.957-0.551,2.18-0.225,2.73,0.732c0.553,0.957,0.225,2.18-0.73,2.731l-2.196,1.269
	l2.196,1.268c0.955,0.553,1.283,1.775,0.73,2.732c-0.552,0.955-1.773,1.282-2.73,0.729l-2.195-1.267v2.535c0,1.105-0.896,2-2,2
	c-1.104,0-2-0.895-2-2v-2.535l-2.195,1.269c-0.957,0.553-2.18,0.226-2.732-0.729c-0.552-0.957-0.225-2.181,0.732-2.732l2.195-1.27
	l-2.195-1.268C25.931,70.469,25.604,69.246,26.155,68.289z"/>
<path fill="#83BBFF" d="M26.155,88.287c0.553-0.957,1.775-1.283,2.732-0.731l2.196,1.267v-2.535c0-1.104,0.896-2,2-2
	c1.104,0,2,0.896,2,2v2.535l2.195-1.268c0.957-0.551,2.18-0.225,2.73,0.732c0.553,0.957,0.225,2.18-0.73,2.731l-2.196,1.269
	l2.196,1.268c0.955,0.553,1.283,1.775,0.73,2.732c-0.552,0.955-1.773,1.282-2.73,0.729l-2.195-1.267v2.535c0,1.105-0.896,2-2,2
	c-1.104,0-2-0.895-2-2V95.75l-2.195,1.269c-0.957,0.553-2.18,0.226-2.732-0.729c-0.552-0.957-0.225-2.181,0.732-2.732l2.195-1.27
	l-2.195-1.268C25.931,90.467,25.604,89.244,26.155,88.287z"/>
<path fill="#83BBFF" d="M62.152,68.289c0.554-0.957,1.775-1.283,2.732-0.731l2.196,1.267v-2.535c0-1.104,0.896-2,2-2
	c1.104,0,2,0.896,2,2v2.535l2.195-1.268c0.957-0.551,2.18-0.225,2.73,0.732c0.553,0.957,0.225,2.18-0.73,2.731l-2.196,1.269
	l2.196,1.268c0.955,0.553,1.283,1.775,0.73,2.732c-0.552,0.955-1.773,1.282-2.73,0.729l-2.195-1.267v2.535c0,1.105-0.896,2-2,2
	c-1.104,0-2-0.895-2-2v-2.535l-2.194,1.269c-0.957,0.553-2.181,0.226-2.732-0.729c-0.553-0.957-0.225-2.181,0.732-2.732l2.194-1.27
	l-2.194-1.268C61.93,70.469,61.602,69.246,62.152,68.289z"/>
<path fill="#83BBFF" d="M62.152,88.287c0.554-0.957,1.775-1.283,2.732-0.731l2.196,1.267v-2.535c0-1.104,0.896-2,2-2
	c1.104,0,2,0.896,2,2v2.535l2.195-1.268c0.957-0.551,2.18-0.225,2.73,0.732c0.553,0.957,0.225,2.18-0.73,2.731l-2.196,1.269
	l2.196,1.268c0.955,0.553,1.283,1.775,0.73,2.732c-0.552,0.955-1.773,1.282-2.73,0.729l-2.195-1.267v2.535c0,1.105-0.896,2-2,2
	c-1.104,0-2-0.895-2-2V95.75l-2.194,1.269c-0.957,0.553-2.181,0.226-2.732-0.729c-0.553-0.957-0.225-2.181,0.732-2.732l2.194-1.27
	l-2.194-1.268C61.93,90.467,61.602,89.244,62.152,88.287z"/>
<path fill="#83BBFF" d="M44.154,81.786c0.554-0.957,1.775-1.283,2.732-0.731l2.196,1.267v-2.535c0-1.104,0.896-2,2-2
	c1.104,0,2,0.896,2,2v2.535l2.195-1.268c0.957-0.551,2.18-0.225,2.73,0.732c0.553,0.957,0.225,2.18-0.73,2.731l-2.196,1.269
	l2.196,1.268c0.955,0.553,1.283,1.775,0.73,2.732c-0.552,0.955-1.773,1.282-2.73,0.729l-2.195-1.267v2.535c0,1.105-0.896,2-2,2
	c-1.104,0-2-0.895-2-2v-2.535l-2.194,1.269c-0.957,0.553-2.181,0.226-2.732-0.729c-0.553-0.957-0.225-2.181,0.732-2.732l2.194-1.27
	l-2.194-1.268C43.932,83.966,43.604,82.743,44.154,81.786z"/>
<path fill="#83BBFF" d="M44.154,102.784c0.554-0.957,1.775-1.283,2.732-0.731l2.196,1.267v-2.535c0-1.104,0.896-2,2-2
	c1.104,0,2,0.896,2,2v2.535l2.195-1.268c0.957-0.551,2.18-0.225,2.73,0.732c0.553,0.957,0.225,2.18-0.73,2.731l-2.196,1.269
	l2.196,1.268c0.955,0.553,1.283,1.775,0.73,2.732c-0.552,0.955-1.773,1.282-2.73,0.729l-2.195-1.267v2.535c0,1.105-0.896,2-2,2
	c-1.104,0-2-0.895-2-2v-2.535l-2.194,1.269c-0.957,0.553-2.181,0.226-2.732-0.729c-0.553-0.957-0.225-2.181,0.732-2.732l2.194-1.27
	l-2.194-1.268C43.932,104.964,43.604,103.741,44.154,102.784z"/>
</svg>
