<?xml version="1.0" encoding="utf-8"?>
<!-- Generator: Adobe Illustrator 16.0.0, SVG Export Plug-In . SVG Version: 6.00 Build 0)  -->
<!DOCTYPE svg PUBLIC "-//W3C//DTD SVG 1.1//EN" "http://www.w3.org/Graphics/SVG/1.1/DTD/svg11.dtd">
<svg version="1.1" id="Layer_1" xmlns="http://www.w3.org/2000/svg" xmlns:xlink="http://www.w3.org/1999/xlink" x="0px" y="0px"
	 width="130px" height="130px" viewBox="-15 0 130 130" enable-background="new -15 0 130 130" xml:space="preserve">
<g>
	<path fill="#D8D8D8" d="M78.506,35.766c-2.414-1.609-5.432-2.415-8.651-2.415c-3.42,0-6.438,1.006-9.053,2.817
		c-1.61-6.841-5.634-12.876-11.266-16.497c-2.415-1.61-5.03-2.616-7.847-3.219c-1.811-0.403-3.42-0.604-5.231-0.604
		c-5.231,0-9.857,1.61-13.882,4.426c-2.616,1.81-4.828,4.024-6.639,6.639c-3.018,4.226-4.627,9.658-4.627,15.291
		c0,14.486,11.266,26.355,25.148,26.355c5.432,0,16.698,0,24.947,0c3.42,0,6.438,0,8.449,0c0,0,0,0,0.201,0
		c9.255,0,16.699-7.846,16.699-17.503c0-3.219-0.805-6.236-2.214-8.852C82.933,39.387,80.921,37.375,78.506,35.766z"/>
</g>
<path fill="#A5A5A5" d="M93.192,48.441c-0.401-5.231-2.413-10.261-5.634-14.084c-1.81-2.212-4.225-4.023-6.84-5.632
	c-3.42-2.012-7.443-3.018-11.669-3.018c-1.407,0-2.815,0.2-4.023,0.402c-2.615-4.828-6.639-8.852-11.467-11.87
	c-2.415-1.409-5.03-2.616-7.646-3.42c-2.817-0.805-5.835-1.207-9.054-1.207c-17.705,0-32.19,14.485-32.19,32.19
	c0,17.705,14.485,32.188,32.19,32.188c5.23,0,19.918,0,27.965,0c1.812,0,3.219,0,4.225,0c10.462,0,19.314-6.639,22.735-15.894
	c1.006-2.614,1.407-5.431,1.407-8.247C93.192,49.647,93.192,49.044,93.192,48.441z M69.05,66.146L69.05,66.146
	c-2.012,0-4.827,0-8.248,0c-8.048,0-18.912,0-23.941,0c-13.278,0-24.143-10.864-24.143-24.143c0-5.231,1.61-10.06,4.426-14.084
	c1.811-2.414,3.822-4.426,6.237-6.035c3.823-2.615,8.45-4.024,13.279-4.024c1.811,0,3.419,0.202,5.029,0.604
	c2.616,0.604,5.231,1.609,7.444,3.018c5.433,3.42,9.456,8.652,10.863,15.09c2.617-1.61,5.433-2.616,8.652-2.616
	c3.018,0,5.833,0.805,8.248,2.213c2.414,1.409,4.226,3.42,5.633,5.633c1.409,2.414,2.214,5.23,2.214,8.048
	C85.146,59.104,77.902,66.146,69.05,66.146z"/>
<path fill="#A5A5A5" d="M101.903,102.239H23.241c-2.17,0-3.934-1.761-3.934-3.934c0-2.172,1.763-3.933,3.934-3.933h78.662
	c2.17,0,3.934,1.761,3.934,3.933C105.837,100.477,104.077,102.239,101.903,102.239z"/>
<path fill="#A5A5A5" d="M85.568,88.506H6.906c-2.17,0-3.934-1.76-3.934-3.934c0-2.171,1.763-3.934,3.934-3.934h78.662
	c2.17,0,3.934,1.763,3.934,3.934C89.502,86.746,87.742,88.506,85.568,88.506z"/>
<path fill="#A5A5A5" d="M85.568,115.839H6.906c-2.17,0-3.934-1.76-3.934-3.934c0-2.171,1.763-3.934,3.934-3.934h78.662
	c2.17,0,3.934,1.763,3.934,3.934C89.502,114.079,87.742,115.839,85.568,115.839z"/>
</svg>
