<?xml version="1.0" encoding="utf-8"?>
<!-- Generator: Adobe Illustrator 16.0.0, SVG Export Plug-In . SVG Version: 6.00 Build 0)  -->
<!DOCTYPE svg PUBLIC "-//W3C//DTD SVG 1.1//EN" "http://www.w3.org/Graphics/SVG/1.1/DTD/svg11.dtd">
<svg version="1.1" id="Layer_1" xmlns="http://www.w3.org/2000/svg" xmlns:xlink="http://www.w3.org/1999/xlink" x="0px" y="0px"
	 width="130px" height="130px" viewBox="0 0 130 130" enable-background="new 0 0 130 130" xml:space="preserve">
<circle fill="#FFEABB" cx="79.461" cy="57.899" r="17.075"/>
<path fill="#FFBC00" d="M79.461,41.035c9.277,0,16.864,7.588,16.864,16.864c0,1.054-0.21,2.108-0.21,3.162
	c2.741,1.476,5.059,3.373,7.167,5.903c1.052-2.741,1.687-5.903,1.687-9.065c0-13.913-11.381-25.295-25.296-25.295
	c-8.221,0-15.388,3.793-20.026,9.696c2.951,0.844,5.48,2.108,8.011,3.584C70.609,42.932,74.824,41.035,79.461,41.035z"/>
<g>
	<path fill="#D8D8D8" d="M93.796,68.229c-2.529-1.687-5.691-2.529-9.065-2.529c-3.581,0-6.746,1.054-9.483,2.95
		c-1.688-7.167-5.903-13.491-11.806-17.286c-2.529-1.687-5.27-2.74-8.221-3.372c-1.897-0.422-3.583-0.633-5.481-0.633
		c-5.48,0-10.329,1.687-14.544,4.637c-2.742,1.897-5.059,4.216-6.957,6.957c-3.162,4.427-4.849,10.118-4.849,16.021
		c0,15.18,11.805,27.615,26.35,27.615c5.692,0,17.498,0,26.141,0c3.581,0,6.744,0,8.851,0c0,0,0,0,0.214,0
		c9.695,0,17.493-8.222,17.493-18.34c0-3.374-0.841-6.535-2.318-9.275C98.437,72.022,96.325,69.915,93.796,68.229z"/>
</g>
<path fill="none" d="M79.673,58.32c1.477-0.211,2.74-0.421,4.217-0.421c4.426,0,8.641,1.054,12.226,3.162
	c0.21-1.054,0.21-2.107,0.21-3.162c0-9.275-7.587-16.864-16.864-16.864c-4.637,0-8.852,1.897-11.804,4.848
	C72.716,49.045,76.721,53.261,79.673,58.32z"/>
<path fill="#FFBC00" d="M49.739,34.079c1.686,1.686,4.216,1.686,5.903,0c1.686-1.687,1.686-4.216,0-5.902l-5.903-5.903
	c-1.687-1.686-4.217-1.686-5.903,0c-1.686,1.687-1.686,4.217,0,5.903L49.739,34.079z"/>
<path fill="#FFBC00" d="M109.396,34.079l5.9-5.902c1.687-1.687,1.687-4.217,0-5.903c-1.686-1.686-4.216-1.686-5.9,0l-5.903,5.903
	c-1.688,1.686-1.688,4.216,0,5.902C104.969,35.765,107.709,35.765,109.396,34.079z"/>
<path fill="#FFBC00" d="M79.461,24.171c2.32,0,4.218-1.897,4.218-4.215v-8.433c0-2.318-1.897-4.216-4.218-4.216
	c-2.317,0-4.214,1.897-4.214,4.216v8.433C75.247,22.273,77.144,24.171,79.461,24.171z"/>
<path fill="#FFBC00" d="M125.837,53.683h-8.432c-2.316,0-4.215,1.897-4.215,4.216c0,2.318,1.898,4.216,4.215,4.216h8.432
	c2.318,0,4.218-1.898,4.218-4.216C130.055,55.58,128.155,53.683,125.837,53.683z"/>
<path fill="#A5A5A5" d="M109.183,81.51c-0.42-5.483-2.529-10.753-5.9-14.757c-1.897-2.32-4.426-4.216-7.167-5.903
	c-3.585-2.107-7.8-3.161-12.226-3.161c-1.477,0-2.953,0.21-4.217,0.42c-2.741-5.06-6.957-9.274-12.016-12.437
	c-2.531-1.476-5.27-2.741-8.011-3.583c-2.951-0.844-6.112-1.266-9.485-1.266c-18.551,0-33.729,15.179-33.729,33.729
	c0,18.549,15.178,33.727,33.729,33.727c5.481,0,20.868,0,29.3,0c1.898,0,3.372,0,4.429,0c10.96,0,20.236-6.957,23.819-16.653
	c1.054-2.74,1.474-5.69,1.474-8.643C109.183,82.773,109.183,82.139,109.183,81.51z M83.89,100.059L83.89,100.059
	c-2.108,0-5.06,0-8.643,0c-8.433,0-19.816,0-25.086,0c-13.913,0-25.295-11.383-25.295-25.296c0-5.48,1.687-10.54,4.637-14.756
	c1.896-2.53,4.004-4.637,6.536-6.324c4.003-2.74,8.852-4.216,13.911-4.216c1.898,0,3.584,0.21,5.271,0.632
	c2.74,0.633,5.481,1.687,7.8,3.162c5.692,3.584,9.907,9.064,11.384,15.81c2.739-1.687,5.691-2.74,9.063-2.74
	c3.161,0,6.112,0.843,8.644,2.318c2.529,1.476,4.426,3.584,5.903,5.903c1.474,2.53,2.319,5.48,2.319,8.431
	C100.753,92.679,93.165,100.059,83.89,100.059z"/>
</svg>
