<?xml version="1.0" encoding="utf-8"?>
<!-- Generator: Adobe Illustrator 16.0.0, SVG Export Plug-In . SVG Version: 6.00 Build 0)  -->
<!DOCTYPE svg PUBLIC "-//W3C//DTD SVG 1.1//EN" "http://www.w3.org/Graphics/SVG/1.1/DTD/svg11.dtd">
<svg version="1.1" id="Layer_1" xmlns="http://www.w3.org/2000/svg" xmlns:xlink="http://www.w3.org/1999/xlink" x="0px" y="0px"
	 width="130px" height="130px" viewBox="137 105.6 130 130" enable-background="new 137 105.6 130 130" xml:space="preserve">
<g>
	<path fill="#D8D8D8" d="M232.344,172.241c-2.564-1.709-5.77-2.564-9.189-2.564c-3.632,0-6.837,1.068-9.615,2.991
		c-1.71-7.265-5.983-13.675-11.966-17.521c-2.565-1.71-5.343-2.779-8.334-3.419c-1.923-0.428-3.633-0.641-5.556-0.641
		c-5.556,0-10.47,1.709-14.745,4.701c-2.778,1.923-5.128,4.274-7.051,7.051c-3.206,4.488-4.915,10.257-4.915,16.24
		c0,15.386,11.966,27.993,26.71,27.993c5.77,0,17.736,0,26.498,0c3.632,0,6.837,0,8.974,0c0,0,0,0,0.214,0
		c9.83,0,17.736-8.333,17.736-18.59c0-3.419-0.854-6.624-2.351-9.402C237.045,176.087,234.908,173.951,232.344,172.241z"/>
</g>
<path fill="#A5A5A5" d="M247.942,185.703c-0.427-5.556-2.563-10.898-5.983-14.958c-1.923-2.351-4.487-4.274-7.266-5.983
	c-3.632-2.137-7.905-3.205-12.394-3.205c-1.495,0-2.99,0.213-4.273,0.427c-2.777-5.128-7.051-9.402-12.18-12.607
	c-2.564-1.496-5.342-2.778-8.12-3.633c-2.992-0.855-6.197-1.282-9.616-1.282c-18.805,0-34.19,15.385-34.19,34.19
	s15.385,34.189,34.19,34.189c5.556,0,21.155,0,29.702,0c1.924,0,3.419,0,4.487,0c11.112,0,20.515-7.052,24.147-16.881
	c1.068-2.778,1.495-5.769,1.495-8.761C247.942,186.985,247.942,186.344,247.942,185.703z M222.3,204.508L222.3,204.508
	c-2.137,0-5.127,0-8.761,0c-8.548,0-20.086,0-25.429,0c-14.104,0-25.643-11.539-25.643-25.643c0-5.556,1.71-10.684,4.701-14.958
	c1.923-2.564,4.06-4.701,6.625-6.41c4.06-2.778,8.975-4.274,14.104-4.274c1.923,0,3.632,0.214,5.342,0.641
	c2.778,0.641,5.556,1.709,7.907,3.206c5.77,3.632,10.043,9.188,11.538,16.026c2.779-1.709,5.771-2.778,9.189-2.778
	c3.205,0,6.196,0.854,8.761,2.35c2.564,1.496,4.488,3.633,5.983,5.984c1.496,2.563,2.351,5.556,2.351,8.547
	C239.396,197.029,231.702,204.508,222.3,204.508z"/>
</svg>
