<?xml version="1.0" encoding="utf-8"?>
<!-- Generator: Adobe Illustrator 16.0.0, SVG Export Plug-In . SVG Version: 6.00 Build 0)  -->
<!DOCTYPE svg PUBLIC "-//W3C//DTD SVG 1.1//EN" "http://www.w3.org/Graphics/SVG/1.1/DTD/svg11.dtd">
<svg version="1.1" id="Layer_1" xmlns="http://www.w3.org/2000/svg" xmlns:xlink="http://www.w3.org/1999/xlink" x="0px" y="0px"
	 width="130px" height="130px" viewBox="-15 0 130 130" enable-background="new -15 0 130 130" xml:space="preserve">
<g>
	<path fill="#D8D8D8" d="M80.344,43.391c-2.564-1.709-5.77-2.564-9.189-2.564c-3.632,0-6.837,1.068-9.615,2.992
		c-1.71-7.266-5.983-13.676-11.966-17.522c-2.565-1.71-5.343-2.779-8.334-3.419c-1.923-0.428-3.633-0.641-5.556-0.641
		c-5.556,0-10.47,1.709-14.745,4.701c-2.778,1.922-5.128,4.274-7.051,7.051c-3.206,4.488-4.915,10.258-4.915,16.24
		c0,15.386,11.966,27.992,26.71,27.992c5.77,0,17.736,0,26.498,0c3.632,0,6.837,0,8.974,0c0,0,0,0,0.214,0
		c9.83,0,17.736-8.333,17.736-18.59c0-3.419-0.854-6.624-2.351-9.402C85.045,47.237,82.908,45.101,80.344,43.391z"/>
</g>
<path fill="#A5A5A5" d="M95.942,56.854c-0.427-5.557-2.563-10.898-5.983-14.959c-1.923-2.35-4.487-4.273-7.266-5.982
	c-3.632-2.137-7.905-3.205-12.394-3.205c-1.495,0-2.99,0.213-4.273,0.427c-2.777-5.128-7.051-9.402-12.18-12.607
	c-2.564-1.496-5.342-2.778-8.12-3.633c-2.992-0.855-6.197-1.282-9.616-1.282c-18.805,0-34.19,15.385-34.19,34.19
	S17.306,83.99,36.11,83.99c5.556,0,21.155,0,29.702,0c1.924,0,3.419,0,4.487,0c11.112,0,20.515-7.051,24.147-16.881
	c1.068-2.777,1.495-5.769,1.495-8.76C95.942,58.135,95.942,57.494,95.942,56.854z M70.3,75.658L70.3,75.658
	c-2.137,0-5.127,0-8.761,0c-8.548,0-20.086,0-25.429,0c-14.104,0-25.643-11.539-25.643-25.643c0-5.557,1.71-10.685,4.701-14.959
	c1.923-2.564,4.06-4.701,6.625-6.41c4.06-2.778,8.975-4.274,14.104-4.274c1.923,0,3.632,0.214,5.342,0.641
	c2.778,0.641,5.556,1.709,7.907,3.205c5.77,3.633,10.043,9.189,11.538,16.027c2.779-1.71,5.771-2.778,9.189-2.778
	c3.205,0,6.196,0.854,8.761,2.351s4.488,3.633,5.983,5.983c1.496,2.563,2.351,5.556,2.351,8.548
	C87.396,68.18,79.702,75.658,70.3,75.658z"/>
<path fill="#80A1BF" d="M35.284,94.505c-2.287,0-2.072-1.854-2.072-4.141v-16.58c0-2.287-0.215-4.146,2.072-4.146
	c2.289,0,2.073,1.858,2.073,4.146v16.58C37.357,92.651,37.573,94.505,35.284,94.505z"/>
<path fill="#83BBFF" d="M35.284,102.795c2.289,0,4.145,1.858,4.145,4.145c0,2.292-1.856,4.146-4.145,4.146
	c-2.287,0-4.145-1.854-4.145-4.146C31.139,104.653,32.995,102.795,35.284,102.795z"/>
<path fill="#80A1BF" d="M51.864,102.795c-2.289,0-2.072-1.854-2.072-4.146V82.074c0-2.289-0.217-4.146,2.072-4.146
	c2.287,0,2.072,1.856,2.072,4.146v16.575C53.937,100.941,54.151,102.795,51.864,102.795z"/>
<circle fill="#83BBFF" cx="51.864" cy="115.23" r="4.145"/>
<path fill="#80A1BF" d="M68.44,94.505c-2.287,0-2.072-1.854-2.072-4.141v-16.58c0-2.287-0.215-4.146,2.072-4.146
	s2.072,1.858,2.072,4.146v16.58C70.513,92.651,70.728,94.505,68.44,94.505z"/>
<path fill="#83BBFF" d="M68.44,102.795c2.287,0,4.144,1.858,4.144,4.145c0,2.292-1.856,4.146-4.144,4.146s-4.146-1.854-4.146-4.146
	C64.295,104.653,66.153,102.795,68.44,102.795z"/>
</svg>
