<?xml version="1.0" encoding="utf-8"?>
<!-- Generator: Adobe Illustrator 16.0.0, SVG Export Plug-In . SVG Version: 6.00 Build 0)  -->
<!DOCTYPE svg PUBLIC "-//W3C//DTD SVG 1.1//EN" "http://www.w3.org/Graphics/SVG/1.1/DTD/svg11.dtd">
<svg version="1.1" id="Layer_1" xmlns="http://www.w3.org/2000/svg" xmlns:xlink="http://www.w3.org/1999/xlink" x="0px" y="0px"
	 width="130px" height="130px" viewBox="0 0 130 130" enable-background="new 0 0 130 130" xml:space="preserve">
<path fill="#FFBC00" d="M106.891,68.808h-7.615c-2.094,0-3.809-1.714-3.809-3.808c0-2.095,1.715-3.809,3.809-3.809h7.615
	c2.095,0,3.81,1.714,3.81,3.809C110.7,67.094,108.985,68.808,106.891,68.808z M91.849,43.483c-1.523,1.523-3.808,1.523-5.332,0
	c-1.522-1.523-1.522-3.808,0-5.332l5.332-5.332c1.523-1.522,3.808-1.522,5.333,0c1.521,1.523,1.521,3.809,0,5.332L91.849,43.483z
	 M65,87.85c-12.567,0-22.85-10.282-22.85-22.85S52.433,42.15,65,42.15S87.85,52.433,87.85,65S77.567,87.85,65,87.85z M65,49.767
	c-8.378,0-15.233,6.855-15.233,15.233c0,8.379,6.855,15.233,15.233,15.233c8.379,0,15.233-6.854,15.233-15.233
	C80.233,56.622,73.379,49.767,65,49.767z M65,34.534c-2.095,0-3.809-1.714-3.809-3.809v-7.617c0-2.094,1.714-3.809,3.809-3.809
	c2.094,0,3.808,1.714,3.808,3.809v7.617C68.808,32.819,67.094,34.534,65,34.534z M38.151,43.483l-5.522-5.332
	c-1.523-1.523-1.523-3.809,0-5.332c1.523-1.522,3.809-1.522,5.332,0l5.332,5.332c1.523,1.523,1.523,3.808,0,5.332
	S39.484,45.006,38.151,43.483z M34.534,65c0,2.094-1.714,3.808-3.809,3.808h-7.617c-2.094,0-3.809-1.714-3.809-3.808
	c0-2.095,1.714-3.809,3.809-3.809h7.617C32.819,61.191,34.534,62.905,34.534,65z M38.151,86.517c1.523-1.522,3.808-1.522,5.332,0
	c1.523,1.524,1.523,3.809,0,5.332l-5.332,5.521c-1.523,1.524-3.809,1.524-5.332,0c-1.522-1.521-1.522-3.808,0-5.331L38.151,86.517z
	 M65,95.467c2.094,0,3.808,1.715,3.808,3.809v7.615c0,2.095-1.714,3.81-3.808,3.81c-2.095,0-3.809-1.715-3.809-3.81v-7.615
	C61.191,97.182,62.905,95.467,65,95.467z M91.849,86.517l5.333,5.332c1.521,1.523,1.521,3.808,0,5.333
	c-1.525,1.521-3.81,1.521-5.333,0l-5.332-5.333c-1.522-1.523-1.522-3.808,0-5.332C88.041,84.994,90.516,84.994,91.849,86.517z"/>
<circle fill="#FFEABB" cx="65" cy="65" r="15.423"/>
</svg>
