<?xml version="1.0" encoding="utf-8"?>
<!-- Generator: Adobe Illustrator 16.0.0, SVG Export Plug-In . SVG Version: 6.00 Build 0)  -->
<!DOCTYPE svg PUBLIC "-//W3C//DTD SVG 1.1//EN" "http://www.w3.org/Graphics/SVG/1.1/DTD/svg11.dtd">
<svg version="1.1" id="Layer_1" xmlns="http://www.w3.org/2000/svg" xmlns:xlink="http://www.w3.org/1999/xlink" x="0px" y="0px"
	 width="130px" height="130px" viewBox="-15 0 130 130" enable-background="new -15 0 130 130" xml:space="preserve">
<path fill="#80A1BF" d="M80.788,68.847L80.788,68.847h-5.773c-2.125,0-3.849-1.722-3.849-3.847s1.724-3.849,3.849-3.849h5.773
	c2.125,0,3.849-1.724,3.849-3.847c0-2.127-1.724-3.85-3.849-3.85c-2.126,0-3.849-1.724-3.849-3.848s1.723-3.849,3.849-3.849
	c0.265,0,0.521,0.027,0.772,0.079c6.006,0.406,10.77,5.356,10.77,11.467C92.33,63.678,87.164,68.847,80.788,68.847z M61.544,61.151
	h-3.849H44.229H19.214c-2.125,0-3.847,1.724-3.847,3.849s1.723,3.847,3.847,3.847h3.849h7.695h5.773h7.698h5.773h7.693h3.849
	c6.377,0,11.546,5.172,11.546,11.546c0,6.111-4.764,11.062-10.77,11.468c-0.252,0.053-0.508,0.079-0.776,0.079
	c-2.125,0-3.849-1.726-3.849-3.85c0-2.127,1.724-3.849,3.849-3.849c2.126,0,3.849-1.725,3.849-3.849
	c0-2.123-1.723-3.849-3.849-3.849h-3.849h-7.693h-5.773h-7.698h-5.773h-7.695h-3.849C12.839,76.544,7.67,71.376,7.67,65
	c0-6.109,4.763-11.06,10.769-11.467c0.252-0.051,0.512-0.078,0.775-0.078l0,0h25.015h13.466h3.849c2.126,0,3.849-1.724,3.849-3.848
	s-1.723-3.849-3.849-3.849c-2.125,0-3.849-1.722-3.849-3.849c0-2.125,1.724-3.849,3.849-3.849c0.269,0,0.524,0.029,0.776,0.079
	c6.006,0.406,10.77,5.356,10.77,11.467C73.09,55.98,67.921,61.151,61.544,61.151z"/>
</svg>
